<svg aria-hidden="true" style="position: absolute; width: 0; height: 0; overflow: hidden;" version="1.1"
    xmlns="http://www.w3.org/2000/svg" xmlns:xlink="http://www.w3.org/1999/xlink">
    <defs>
        <symbol id="youtube" viewBox="0 0 32 32">
            <path
                d="M16.372 3.809c0.814 0.005 2.849 0.024 5.013 0.111l0.768 0.034c2.178 0.102 4.354 0.279 5.434 0.579 1.44 0.405 2.57 1.585 2.953 3.081 0.609 2.377 0.686 7.013 0.695 8.136l0.001 0.232v0.265c-0.011 1.123-0.087 5.76-0.696 8.136-0.387 1.501-1.519 2.682-2.953 3.081-1.080 0.3-3.256 0.477-5.434 0.579l-0.768 0.035c-2.164 0.085-4.2 0.107-5.013 0.11l-0.358 0.001h-0.389c-1.722-0.011-8.923-0.088-11.215-0.725-1.438-0.405-2.571-1.585-2.953-3.081-0.61-2.377-0.686-7.013-0.695-8.136v-0.497c0.009-1.123 0.085-5.76 0.695-8.136 0.387-1.501 1.519-2.682 2.955-3.080 2.29-0.638 9.493-0.716 11.215-0.725h0.745zM12.951 10.667v10.667l9.143-5.333-9.143-5.333z">
            </path>
        </symbol>
        <symbol id="twitter" viewBox="0 0 32 32">
            <path
                d="M10.052 29c12.076 0 18.682-10.006 18.682-18.668 0-0.28 0-0.564-0.012-0.844 1.286-0.931 2.396-2.084 3.278-3.404-1.201 0.53-2.474 0.879-3.778 1.036 1.373-0.821 2.401-2.112 2.894-3.634-1.29 0.764-2.702 1.301-4.174 1.586-0.99-1.054-2.299-1.752-3.726-1.986s-2.891 0.008-4.166 0.69c-1.275 0.682-2.289 1.765-2.886 3.082s-0.743 2.794-0.415 4.202c-2.611-0.131-5.164-0.809-7.496-1.991s-4.389-2.84-6.038-4.867c-0.837 1.446-1.093 3.157-0.715 4.785s1.362 3.051 2.751 3.979c-1.041-0.035-2.059-0.315-2.972-0.816v0.090c0.002 1.515 0.527 2.983 1.486 4.156s2.294 1.978 3.778 2.28c-0.563 0.155-1.146 0.233-1.73 0.23-0.412 0.001-0.823-0.037-1.228-0.114 0.42 1.304 1.237 2.444 2.337 3.261s2.428 1.269 3.798 1.293c-2.327 1.828-5.201 2.819-8.16 2.814-0.521 0.002-1.042-0.028-1.56-0.090 3.003 1.914 6.491 2.931 10.052 2.93z">
            </path>
        </symbol>
        <symbol id="tiktok" viewBox="0 0 32 32">
            <path
                d="M22.095 10.278v11.055c-0 2.057-0.641 4.063-1.834 5.739s-2.877 2.94-4.821 3.615c-1.943 0.675-4.049 0.728-6.024 0.152s-3.721-1.753-4.997-3.367c-1.276-1.614-2.017-3.585-2.121-5.64s0.434-4.091 1.539-5.825c1.106-1.735 2.724-3.082 4.63-3.855s4.006-0.933 6.008-0.459v4.82c-1.044-0.495-2.221-0.638-3.353-0.407s-2.159 0.824-2.925 1.689c-0.766 0.865-1.231 1.956-1.324 3.107s0.191 2.303 0.808 3.279c0.618 0.977 1.536 1.726 2.616 2.136s2.265 0.458 3.375 0.136c1.11-0.321 2.086-0.994 2.78-1.918s1.070-2.048 1.070-3.203v-20.571h4.571c0 2.021 0.803 3.959 2.232 5.388s3.367 2.232 5.387 2.232v4.571c-2.77 0.004-5.459-0.94-7.619-2.674z">
            </path>
        </symbol>
        <symbol id="instagram" viewBox="0 0 32 32">
            <path
                d="M17.567 0.763c1.112-0.004 2.224 0.007 3.336 0.034l0.296 0.011c0.341 0.012 0.678 0.027 1.085 0.046 1.621 0.076 2.728 0.332 3.698 0.709 1.006 0.387 1.853 0.911 2.7 1.758 0.775 0.761 1.374 1.682 1.757 2.699 0.376 0.971 0.632 2.079 0.709 3.7 0.018 0.405 0.034 0.744 0.046 1.085l0.009 0.296c0.027 1.111 0.039 2.223 0.035 3.334l0.001 1.137v1.996c0.004 1.112-0.008 2.224-0.035 3.336l-0.009 0.296c-0.012 0.341-0.027 0.678-0.046 1.085-0.076 1.621-0.335 2.727-0.71 3.698-0.381 1.018-0.981 1.939-1.757 2.7-0.762 0.775-1.683 1.374-2.7 1.757-0.971 0.376-2.077 0.632-3.698 0.709-0.407 0.018-0.744 0.034-1.085 0.046l-0.296 0.009c-1.112 0.027-2.224 0.039-3.336 0.035l-3.131 0.002c-1.112 0.004-2.224-0.008-3.336-0.035l-0.296-0.009c-0.362-0.013-0.723-0.028-1.085-0.046-1.621-0.076-2.728-0.335-3.7-0.71-1.017-0.382-1.938-0.982-2.699-1.757-0.776-0.761-1.376-1.683-1.758-2.7-0.376-0.971-0.632-2.077-0.709-3.698-0.017-0.362-0.032-0.723-0.046-1.085l-0.008-0.296c-0.028-1.112-0.041-2.224-0.038-3.336v-3.133c-0.004-1.111 0.007-2.223 0.034-3.334l0.011-0.296c0.012-0.341 0.027-0.68 0.046-1.085 0.076-1.623 0.332-2.728 0.709-3.7 0.383-1.017 0.984-1.938 1.762-2.697 0.76-0.776 1.681-1.377 2.697-1.76 0.972-0.376 2.077-0.632 3.7-0.709l1.085-0.046 0.296-0.008c1.111-0.028 2.223-0.041 3.334-0.038l3.133 0.002zM16 8.382c-1.009-0.014-2.012 0.172-2.949 0.549s-1.789 0.935-2.508 1.644c-0.719 0.709-1.29 1.553-1.679 2.485s-0.59 1.931-0.59 2.941c0 1.010 0.201 2.009 0.59 2.941s0.961 1.776 1.679 2.485c0.719 0.709 1.572 1.268 2.508 1.644s1.939 0.563 2.949 0.549c2.021 0 3.959-0.803 5.387-2.232s2.232-3.367 2.232-5.387c0-2.021-0.803-3.959-2.232-5.387s-3.367-2.23-5.387-2.23zM16 11.43c0.607-0.011 1.211 0.099 1.775 0.323s1.078 0.559 1.512 0.985c0.433 0.425 0.778 0.933 1.013 1.493s0.356 1.161 0.356 1.769c0 0.607-0.121 1.209-0.356 1.769s-0.579 1.068-1.012 1.493c-0.433 0.426-0.947 0.761-1.511 0.985s-1.168 0.335-1.775 0.324c-1.212 0-2.375-0.482-3.232-1.339s-1.339-2.020-1.339-3.232c0-1.212 0.482-2.375 1.339-3.232s2.020-1.339 3.232-1.339l-0.002 0.002zM24 6.097c-0.492 0.020-0.957 0.229-1.297 0.584s-0.531 0.828-0.531 1.32 0.19 0.965 0.531 1.32c0.341 0.355 0.806 0.564 1.297 0.584 0.505 0 0.989-0.201 1.347-0.558s0.558-0.842 0.558-1.347c0-0.505-0.201-0.99-0.558-1.347s-0.842-0.558-1.347-0.558v0.003z">
            </path>
        </symbol>
        <symbol id="github" viewBox="0 0 32 32">
            <path
                d="M16 0c-8.84 0-16 7.16-16 16 0 7.080 4.58 13.060 10.94 15.18 0.8 0.14 1.1-0.34 1.1-0.76 0-0.38-0.020-1.64-0.020-2.98-4.020 0.74-5.060-0.98-5.38-1.88-0.18-0.46-0.96-1.88-1.64-2.26-0.56-0.3-1.36-1.040-0.020-1.060 1.26-0.020 2.16 1.16 2.46 1.64 1.44 2.42 3.74 1.74 4.66 1.32 0.14-1.040 0.56-1.74 1.020-2.14-3.56-0.4-7.28-1.78-7.28-7.9 0-1.74 0.62-3.18 1.64-4.3-0.16-0.4-0.72-2.040 0.16-4.24 0 0 1.34-0.42 4.4 1.64 1.28-0.36 2.64-0.54 4-0.54s2.72 0.18 4 0.54c3.060-2.080 4.4-1.64 4.4-1.64 0.88 2.2 0.32 3.84 0.16 4.24 1.020 1.12 1.64 2.54 1.64 4.3 0 6.14-3.74 7.5-7.3 7.9 0.58 0.5 1.080 1.46 1.080 2.96 0 2.14-0.020 3.86-0.020 4.4 0 0.42 0.3 0.92 1.1 0.76 3.176-1.072 5.937-3.113 7.892-5.836s3.007-5.991 3.008-9.344c0-8.84-7.16-16-16-16z">
            </path>
        </symbol>
        <symbol id="facebook" viewBox="0 0 16 32">
            <path
                d="M13.080 5.313h2.921v-5.088c-0.504-0.069-2.237-0.225-4.256-0.225-4.212 0-7.097 2.649-7.097 7.519v4.481h-4.648v5.688h4.648v14.312h5.699v-14.311h4.46l0.708-5.688h-5.169v-3.919c0.001-1.644 0.444-2.769 2.735-2.769z">
            </path>
        </symbol>
        <symbol id="vector" viewBox="0 0 22 32">
            <path
                d="M20.385 18.07 5.309 31.26C3.534 32.816.75 31.55.75 29.189V2.811A2.75 2.75 0 0 1 5.312.74l15.07 13.188a2.75 2.75 0 0 1 0 4.142h.003Z" />
        </symbol>
    </defs>
</svg>